# xmcd
#
# Track frame offsets: 
#        150
#        11563
#        22010
#        33717
#        46407
#        57027
#        68804
#        79675
#        90656
#        101251
#        114185
#        125389
#        139131
#        150203
#        160629
#        172140
#        182321
#        193887
#        205054
#        215351
#        226437
#        235051
#        246066
#        256165
#        268643
#        278453
#        290035
#
# Disc length: 4030 seconds
#
# Revision: 0
# Processed by: cddbd v1.5.2PL0 Copyright (c) Steve Scherf et al.
# Submitted via: ExactAudioCopyFreeDBPlugin 1.0
#
DISCID=670fbc1b
DTITLE=Patsy Cline - Crazy CD2
DYEAR=2012
DGENRE=Country
TTITLE0=Crazy Dreams
TTITLE1=Lovesick Blues
TTITLE2=Let The Teardrops Fall
TTITLE3=Yes I Understand
TTITLE4=Gotta Lot Of Rhythm In My Soul
TTITLE5=Today, Tomorrow And Forever
TTITLE6=I Don't Wanta
TTITLE7=Stop The World (And Let Me Off)
TTITLE8=I Can See An Angel
TTITLE9=If I Could See The World
TTITLE10=Dear God
TTITLE11=A Church, A Courtroom, And Then Goodbye
TTITLE12=Hidin' Out
TTITLE13=I Love You Honey
TTITLE14=I've Loved And Lost Again
TTITLE15=Who Can I Count On?
TTITLE16=(Write Me) In Care Of The Blues
TTITLE17=Hungry For Love
TTITLE18=Too Many Secrets
TTITLE19=Don't Ever Leave Me Again
TTITLE20=Ain't No Wheels On This Ship
TTITLE21=I Can't Forget
TTITLE22=Three Cigarettes In An Ashtray
TTITLE23=Fingerprints
TTITLE24=Foolin' Around
TTITLE25=Walikn' After (1957)
TTITLE26=A Poor Man's Roses (1957)
EXTD=
EXTT0=
EXTT1=
EXTT2=
EXTT3=
EXTT4=
EXTT5=
EXTT6=
EXTT7=
EXTT8=
EXTT9=
EXTT10=
EXTT11=
EXTT12=
EXTT13=
EXTT14=
EXTT15=
EXTT16=
EXTT17=
EXTT18=
EXTT19=
EXTT20=
EXTT21=
EXTT22=
EXTT23=
EXTT24=
EXTT25=
EXTT26=
PLAYORDER=
